<svg xmlns="http://www.w3.org/2000/svg" width="38.432" height="19.034" viewBox="0 0 38.432 19.034"><defs><style>.a{fill:#fff;}.b{fill:#a7d600;}.c{fill:#00cbe8;}.d{fill:#ff377e;}.e{fill:#f7d502;}.f{fill:#aaa9a9;}.g{fill:#07ab5c;}</style></defs><path class="a" d="M165.642,127.543a22.023,22.023,0,0,0-17.542,0,7.744,7.744,0,0,1-9.794-3.031h0c-2.17-3.355-.251-9.612,5.655-12.332a30.385,30.385,0,0,1,25.824,0c5.905,2.72,7.292,9.543,5.117,12.9h0C172.736,128.5,169.385,129.046,165.642,127.543Z" transform="translate(-137.441 -109.299)"/><g transform="translate(25.562 6.031)"><circle class="b" cx="1.504" cy="1.504" r="1.504" transform="translate(6.04 3.02)"/><circle class="c" cx="1.504" cy="1.504" r="1.504" transform="translate(0 3.02)"/><circle class="d" cx="1.504" cy="1.504" r="1.504" transform="translate(3.02)"/><circle class="e" cx="1.504" cy="1.504" r="1.504" transform="translate(3.02 6.04)"/></g><g transform="translate(17.001 7.101)"><rect class="f" width="4.429" height="1.527" rx="0.189"/><rect class="f" width="4.429" height="1.527" rx="0.189" transform="translate(0 2.52)"/></g><path class="g" d="M142.623,111.515l-1.112,1.112-1.116-1.112a.939.939,0,1,0-1.33,1.326l1.116,1.116-1.116,1.111a.94.94,0,0,0,1.33,1.33l1.116-1.112,1.112,1.112a.94.94,0,1,0,1.33-1.33l-1.112-1.111,1.112-1.116a.939.939,0,1,0-1.33-1.326Z" transform="translate(-133.326 -103.4)"/></svg>